<svg width="30" height="30" viewBox="0 0 30 30" fill="none" xmlns="http://www.w3.org/2000/svg">
<path d="M5 27.5C4.64583 27.5 4.34896 27.3802 4.10938 27.1406C3.86979 26.901 3.75 26.6042 3.75 26.25V20C3.75 19.3125 3.99479 18.724 4.48438 18.2344C4.97396 17.7448 5.5625 17.5 6.25 17.5V12.5C6.25 11.8125 6.49479 11.224 6.98438 10.7344C7.47396 10.2448 8.0625 10 8.75 10H13.75V8.1875C13.375 7.9375 13.0729 7.63542 12.8438 7.28125C12.6146 6.92708 12.5 6.5 12.5 6C12.5 5.6875 12.5625 5.38021 12.6875 5.07812C12.8125 4.77604 13 4.5 13.25 4.25L15 2.5L16.75 4.25C17 4.5 17.1875 4.77604 17.3125 5.07812C17.4375 5.38021 17.5 5.6875 17.5 6C17.5 6.5 17.3854 6.92708 17.1562 7.28125C16.9271 7.63542 16.625 7.9375 16.25 8.1875V10H21.25C21.9375 10 22.526 10.2448 23.0156 10.7344C23.5052 11.224 23.75 11.8125 23.75 12.5V17.5C24.4375 17.5 25.026 17.7448 25.5156 18.2344C26.0052 18.724 26.25 19.3125 26.25 20V26.25C26.25 26.6042 26.1302 26.901 25.8906 27.1406C25.651 27.3802 25.3542 27.5 25 27.5H5ZM8.75 17.5H21.25V12.5H8.75V17.5ZM6.25 25H23.75V20H6.25V25Z" fill="#035781"/>
</svg>
