<svg width="205" height="38" viewBox="0 0 205 38" fill="none" xmlns="http://www.w3.org/2000/svg">
<path d="M68.4 22L65.48 16.7H64.66V22H61.24V7.96H66.98C68.0867 7.96 69.0267 8.15333 69.8 8.54C70.5867 8.92667 71.1733 9.46 71.56 10.14C71.9467 10.8067 72.14 11.5533 72.14 12.38C72.14 13.3133 71.8733 14.1467 71.34 14.88C70.82 15.6133 70.0467 16.1333 69.02 16.44L72.26 22H68.4ZM64.66 14.28H66.78C67.4067 14.28 67.8733 14.1267 68.18 13.82C68.5 13.5133 68.66 13.08 68.66 12.52C68.66 11.9867 68.5 11.5667 68.18 11.26C67.8733 10.9533 67.4067 10.8 66.78 10.8H64.66V14.28ZM87.1269 22.14C85.8069 22.14 84.5935 21.8333 83.4869 21.22C82.3935 20.6067 81.5202 19.7533 80.8669 18.66C80.2269 17.5533 79.9069 16.3133 79.9069 14.94C79.9069 13.5667 80.2269 12.3333 80.8669 11.24C81.5202 10.1467 82.3935 9.29333 83.4869 8.68C84.5935 8.06667 85.8069 7.76 87.1269 7.76C88.4469 7.76 89.6535 8.06667 90.7469 8.68C91.8535 9.29333 92.7202 10.1467 93.3469 11.24C93.9869 12.3333 94.3069 13.5667 94.3069 14.94C94.3069 16.3133 93.9869 17.5533 93.3469 18.66C92.7069 19.7533 91.8402 20.6067 90.7469 21.22C89.6535 21.8333 88.4469 22.14 87.1269 22.14ZM87.1269 19.02C88.2469 19.02 89.1402 18.6467 89.8069 17.9C90.4869 17.1533 90.8269 16.1667 90.8269 14.94C90.8269 13.7 90.4869 12.7133 89.8069 11.98C89.1402 11.2333 88.2469 10.86 87.1269 10.86C85.9935 10.86 85.0869 11.2267 84.4069 11.96C83.7402 12.6933 83.4069 13.6867 83.4069 14.94C83.4069 16.18 83.7402 17.1733 84.4069 17.92C85.0869 18.6533 85.9935 19.02 87.1269 19.02ZM109.05 22.14C107.73 22.14 106.516 21.8333 105.41 21.22C104.316 20.6067 103.443 19.7533 102.79 18.66C102.15 17.5533 101.83 16.3133 101.83 14.94C101.83 13.5667 102.15 12.3333 102.79 11.24C103.443 10.1467 104.316 9.29333 105.41 8.68C106.516 8.06667 107.73 7.76 109.05 7.76C110.37 7.76 111.576 8.06667 112.67 8.68C113.776 9.29333 114.643 10.1467 115.27 11.24C115.91 12.3333 116.23 13.5667 116.23 14.94C116.23 16.3133 115.91 17.5533 115.27 18.66C114.63 19.7533 113.763 20.6067 112.67 21.22C111.576 21.8333 110.37 22.14 109.05 22.14ZM109.05 19.02C110.17 19.02 111.063 18.6467 111.73 17.9C112.41 17.1533 112.75 16.1667 112.75 14.94C112.75 13.7 112.41 12.7133 111.73 11.98C111.063 11.2333 110.17 10.86 109.05 10.86C107.916 10.86 107.01 11.2267 106.33 11.96C105.663 12.6933 105.33 13.6867 105.33 14.94C105.33 16.18 105.663 17.1733 106.33 17.92C107.01 18.6533 107.916 19.02 109.05 19.02ZM140.232 7.96V22H136.812V13.58L133.672 22H130.912L127.752 13.56V22H124.332V7.96H128.372L132.312 17.68L136.212 7.96H140.232ZM160.932 7.96L156.072 17.36V22H152.652V17.36L147.792 7.96H151.672L154.392 13.84L157.092 7.96H160.932ZM167.93 14.96C167.93 13.5733 168.23 12.34 168.83 11.26C169.43 10.1667 170.263 9.32 171.33 8.72C172.41 8.10667 173.63 7.8 174.99 7.8C176.656 7.8 178.083 8.24 179.27 9.12C180.456 10 181.25 11.2 181.65 12.72H177.89C177.61 12.1333 177.21 11.6867 176.69 11.38C176.183 11.0733 175.603 10.92 174.95 10.92C173.896 10.92 173.043 11.2867 172.39 12.02C171.736 12.7533 171.41 13.7333 171.41 14.96C171.41 16.1867 171.736 17.1667 172.39 17.9C173.043 18.6333 173.896 19 174.95 19C175.603 19 176.183 18.8467 176.69 18.54C177.21 18.2333 177.61 17.7867 177.89 17.2H181.65C181.25 18.72 180.456 19.92 179.27 20.8C178.083 21.6667 176.656 22.1 174.99 22.1C173.63 22.1 172.41 21.8 171.33 21.2C170.263 20.5867 169.43 19.74 168.83 18.66C168.23 17.58 167.93 16.3467 167.93 14.96ZM196.584 22.14C195.264 22.14 194.051 21.8333 192.944 21.22C191.851 20.6067 190.977 19.7533 190.324 18.66C189.684 17.5533 189.364 16.3133 189.364 14.94C189.364 13.5667 189.684 12.3333 190.324 11.24C190.977 10.1467 191.851 9.29333 192.944 8.68C194.051 8.06667 195.264 7.76 196.584 7.76C197.904 7.76 199.111 8.06667 200.204 8.68C201.311 9.29333 202.177 10.1467 202.804 11.24C203.444 12.3333 203.764 13.5667 203.764 14.94C203.764 16.3133 203.444 17.5533 202.804 18.66C202.164 19.7533 201.297 20.6067 200.204 21.22C199.111 21.8333 197.904 22.14 196.584 22.14ZM196.584 19.02C197.704 19.02 198.597 18.6467 199.264 17.9C199.944 17.1533 200.284 16.1667 200.284 14.94C200.284 13.7 199.944 12.7133 199.264 11.98C198.597 11.2333 197.704 10.86 196.584 10.86C195.451 10.86 194.544 11.2267 193.864 11.96C193.197 12.6933 192.864 13.6867 192.864 14.94C192.864 16.18 193.197 17.1733 193.864 17.92C194.544 18.6533 195.451 19.02 196.584 19.02Z" fill="#2387C2"/>
<path d="M64.068 34L62.511 31.372H61.35V34H60.72V27.709H62.61C63.312 27.709 63.843 27.877 64.203 28.213C64.569 28.549 64.752 28.99 64.752 29.536C64.752 29.992 64.62 30.382 64.356 30.706C64.098 31.024 63.714 31.231 63.204 31.327L64.824 34H64.068ZM61.35 30.859H62.619C63.111 30.859 63.48 30.739 63.726 30.499C63.978 30.259 64.104 29.938 64.104 29.536C64.104 29.122 63.984 28.804 63.744 28.582C63.504 28.354 63.126 28.24 62.61 28.24H61.35V30.859ZM75.6682 34.063C75.0862 34.063 74.5582 33.928 74.0842 33.658C73.6102 33.382 73.2352 33.001 72.9592 32.515C72.6892 32.023 72.5542 31.468 72.5542 30.85C72.5542 30.232 72.6892 29.68 72.9592 29.194C73.2352 28.702 73.6102 28.321 74.0842 28.051C74.5582 27.775 75.0862 27.637 75.6682 27.637C76.2562 27.637 76.7872 27.775 77.2612 28.051C77.7352 28.321 78.1072 28.702 78.3772 29.194C78.6472 29.68 78.7822 30.232 78.7822 30.85C78.7822 31.468 78.6472 32.023 78.3772 32.515C78.1072 33.001 77.7352 33.382 77.2612 33.658C76.7872 33.928 76.2562 34.063 75.6682 34.063ZM75.6682 33.514C76.1362 33.514 76.5562 33.406 76.9282 33.19C77.3002 32.974 77.5942 32.665 77.8102 32.263C78.0262 31.855 78.1342 31.384 78.1342 30.85C78.1342 30.316 78.0262 29.848 77.8102 29.446C77.5942 29.044 77.3002 28.735 76.9282 28.519C76.5562 28.303 76.1362 28.195 75.6682 28.195C75.2002 28.195 74.7802 28.303 74.4082 28.519C74.0362 28.735 73.7422 29.044 73.5262 29.446C73.3102 29.848 73.2022 30.316 73.2022 30.85C73.2022 31.384 73.3102 31.855 73.5262 32.263C73.7422 32.665 74.0362 32.974 74.4082 33.19C74.7802 33.406 75.2002 33.514 75.6682 33.514ZM89.601 34.063C89.019 34.063 88.491 33.928 88.017 33.658C87.543 33.382 87.168 33.001 86.892 32.515C86.622 32.023 86.487 31.468 86.487 30.85C86.487 30.232 86.622 29.68 86.892 29.194C87.168 28.702 87.543 28.321 88.017 28.051C88.491 27.775 89.019 27.637 89.601 27.637C90.189 27.637 90.72 27.775 91.194 28.051C91.668 28.321 92.04 28.702 92.31 29.194C92.58 29.68 92.715 30.232 92.715 30.85C92.715 31.468 92.58 32.023 92.31 32.515C92.04 33.001 91.668 33.382 91.194 33.658C90.72 33.928 90.189 34.063 89.601 34.063ZM89.601 33.514C90.069 33.514 90.489 33.406 90.861 33.19C91.233 32.974 91.527 32.665 91.743 32.263C91.959 31.855 92.067 31.384 92.067 30.85C92.067 30.316 91.959 29.848 91.743 29.446C91.527 29.044 91.233 28.735 90.861 28.519C90.489 28.303 90.069 28.195 89.601 28.195C89.133 28.195 88.713 28.303 88.341 28.519C87.969 28.735 87.675 29.044 87.459 29.446C87.243 29.848 87.135 30.316 87.135 30.85C87.135 31.384 87.243 31.855 87.459 32.263C87.675 32.665 87.969 32.974 88.341 33.19C88.713 33.406 89.133 33.514 89.601 33.514ZM106.855 27.79V34H106.225V29.041L104.011 34H103.552L101.338 29.059V34H100.708V27.79H101.374L103.777 33.172L106.18 27.79H106.855ZM121.271 27.79V34H120.641V29.041L118.427 34H117.968L115.754 29.059V34H115.124V27.79H115.79L118.193 33.172L120.596 27.79H121.271ZM133.185 32.506H130.323L129.774 34H129.108L131.403 27.79H132.114L134.4 34H133.734L133.185 32.506ZM132.996 31.984L131.754 28.582L130.512 31.984H132.996ZM145.932 27.709V28.231H144.186V34H143.556V28.231H141.801V27.709H145.932ZM154.397 28.222V30.571H156.782V31.093H154.397V33.478H157.052V34H153.767V27.7H157.052V28.222H154.397Z" fill="#2387C2"/>
<rect x="20.1016" y="19.1768" width="2.75076" height="2.96235" fill="#F3704A"/>
<rect x="20.1016" y="22.5625" width="2.75076" height="2.96235" fill="#F3704A"/>
<rect x="16.7161" y="19.1768" width="2.75076" height="2.96235" fill="#F3704A"/>
<rect x="16.7161" y="22.5625" width="2.75076" height="2.96235" fill="#F3704A"/>
<circle cx="34.1125" cy="7.79625" r="2.79625" fill="#F3704A"/>
<path d="M32.5469 13.5736C32.4918 12.5056 33.3289 11.5596 34.3982 11.5596C35.2943 11.5596 36.045 12.2318 36.1095 13.1255C36.2428 14.9742 36.3714 18.0825 35.9714 20.3408C35.4222 23.4416 34.7774 25.4585 33.0091 28.0641C31.2826 30.608 29.4879 31.9204 26.8728 33.354C24.1507 34.8463 20.3723 35.2242 17.1393 34.6236C13.5172 33.9506 10.5798 32.1902 10.5798 32.1902C10.5798 32.1902 15.9841 33.1944 20.9481 32.1902C23.9232 31.5884 26.6045 29.6447 28.2481 28.0641C29.7202 26.6484 31.3419 23.9856 31.9511 21.3988C32.6365 18.4883 32.6455 15.4842 32.5469 13.5736Z" fill="#F3704A"/>
<circle cx="5.12376" cy="7.79625" r="2.79625" fill="#2387C2"/>
<path d="M3.36023 13.3198C3.36023 12.3473 4.14861 11.5596 5.12113 11.5596C6.07465 11.5596 6.8549 12.317 6.88131 13.2702C6.92486 14.8418 6.9898 17.1855 7.03825 18.9341C6.83392 21.5046 8.11299 24.8191 9.7334 26.7945C11.3036 28.7087 14.4111 30.7053 16.8463 31.0493C20.3174 31.5395 24.0162 30.7091 24.0162 30.7091C24.0162 30.7091 21.8217 31.5715 18.9379 32.0844C15.7639 32.4018 11.664 32.3541 9.41601 30.7091C6.24882 28.3914 5.3521 27.5221 4.12609 24.467C3.7838 23.1907 3.36023 21.7162 3.36023 19.6715C3.36023 17.7035 3.36023 15.0478 3.36023 13.3198Z" fill="#2387C2"/>
<path d="M19.2231 11.5247C19.5615 11.2904 20.009 11.2875 20.3506 11.5173L31.1047 18.7537L20.2677 12.8794C19.9667 12.7163 19.6031 12.7185 19.3041 12.8852L8.78125 18.7537L19.2231 11.5247Z" fill="#F3704A"/>
<path d="M19.6784 5.21143L39.4692 19.2826V23.4087L19.6784 9.44336L7.82898 18.2246V13.9927L19.6784 5.21143Z" fill="#2387C2"/>
<path d="M0 19.4392L2.43336 17.6406V21.8726L0 23.6711V19.4392Z" fill="#2387C2"/>
</svg>
