<svg width="19" height="17" viewBox="0 0 19 17" fill="none" xmlns="http://www.w3.org/2000/svg">
<path d="M3.89724 15.8442C3.87451 15.9511 3.88177 16.0623 3.9182 16.1652C3.95463 16.2682 4.01877 16.3587 4.10337 16.4266C4.18798 16.4946 4.28966 16.5371 4.39692 16.5496C4.50418 16.562 4.61273 16.5438 4.71029 16.497L9.50264 14.0064L14.295 16.497C14.3926 16.5438 14.5011 16.562 14.6084 16.5496C14.7156 16.5371 14.8173 16.4946 14.9019 16.4266C14.9865 16.3587 15.0507 16.2682 15.0871 16.1652C15.1235 16.0623 15.1308 15.9511 15.108 15.8442L14.1909 10.622L18.0314 6.9162C18.1125 6.83818 18.1707 6.73897 18.1996 6.62953C18.2285 6.52009 18.227 6.40468 18.1952 6.29607C18.1634 6.18746 18.1025 6.08988 18.0194 6.0141C17.9362 5.93833 17.834 5.88733 17.724 5.86673L12.383 5.09846L10.0017 0.321471C9.95598 0.225176 9.88433 0.143916 9.79502 0.0870444C9.70571 0.0301724 9.60235 0 9.49686 0C9.39136 0 9.288 0.0301724 9.19869 0.0870444C9.10938 0.143916 9.03773 0.225176 8.99201 0.321471L6.6107 5.09846L1.26806 5.86673C1.15808 5.88733 1.05586 5.93833 0.972703 6.0141C0.88955 6.08988 0.828705 6.18746 0.796895 6.29607C0.765084 6.40468 0.763548 6.52009 0.792455 6.62953C0.821362 6.73897 0.879586 6.83818 0.960691 6.9162L4.80283 10.622L3.89724 15.8442ZM9.24484 12.7878L5.23414 14.8801L5.98274 10.5098C6.00064 10.4094 5.99388 10.306 5.96304 10.2088C5.93221 10.1116 5.87825 10.0236 5.80592 9.95245L2.63636 6.89444L7.05193 6.2584C7.14334 6.24439 7.23004 6.20813 7.30458 6.15275C7.37912 6.09736 7.4393 6.02449 7.47994 5.94038L9.49603 1.90153L11.5138 5.94038C11.5544 6.02449 11.6146 6.09736 11.6891 6.15275C11.7637 6.20813 11.8504 6.24439 11.9418 6.2584L16.359 6.89444L13.1861 9.95245C13.1138 10.0236 13.0599 10.1116 13.029 10.2088C12.9982 10.306 12.9914 10.4094 13.0093 10.5098L13.7662 14.8801L9.74887 12.7878C9.67097 12.747 9.58455 12.7258 9.49686 12.7258C9.40916 12.7258 9.32274 12.747 9.24484 12.7878Z" fill="#FFD433"/>
</svg>
