<svg width="36" height="36" viewBox="0 0 36 36" fill="none" xmlns="http://www.w3.org/2000/svg">
<path d="M11.4121 9.81491C11.4121 12.0976 12.6664 13.883 14.2484 13.883C15.8418 13.883 17.0735 12.0976 17.0735 9.81491C17.0735 7.52096 15.8418 5.74683 14.2484 5.74683C12.6551 5.74683 11.4121 7.52096 11.4121 9.81491ZM18.9041 9.81491C18.9041 12.0976 20.1471 13.883 21.7405 13.883C23.3225 13.883 24.5655 12.0976 24.5655 9.81491C24.5655 7.52096 23.3225 5.74683 21.7405 5.74683C20.1471 5.74683 18.9041 7.52096 18.9041 9.81491ZM5.84106 16.4594C5.84106 18.7534 7.07279 20.5388 8.65482 20.5388C10.2482 20.5388 11.4912 18.7534 11.4912 16.4594C11.4912 14.1768 10.2482 12.3914 8.65482 12.3914C7.07279 12.3914 5.84106 14.1768 5.84106 16.4594ZM24.4977 16.4594C24.4977 18.7534 25.7295 20.5388 27.3228 20.5388C28.9161 20.5388 30.1478 18.7534 30.1478 16.4594C30.1478 14.1768 28.9161 12.3914 27.3228 12.3914C25.7295 12.3914 24.4977 14.1768 24.4977 16.4594ZM9.34413 25.3188C9.34413 27.6806 10.9375 29.3643 13.2653 29.3643C14.4066 29.3643 15.2429 29.0479 16.0226 28.7654C16.6554 28.5507 17.2543 28.3473 17.9888 28.3473C18.7233 28.3473 19.3222 28.5507 19.955 28.7654C20.7461 29.0479 21.571 29.3643 22.7123 29.3643C25.0401 29.3643 26.6335 27.6806 26.6335 25.3188C26.6335 23.33 25.4357 22.313 24.3169 21.3976C23.6954 20.8891 23.0965 20.4145 22.6897 19.793C22.362 19.2958 22.0795 18.7421 21.8309 18.1997C21.006 16.4481 20.3506 14.7644 17.9888 14.7644C15.6271 14.7644 14.9716 16.4481 14.158 18.1997C13.8981 18.7421 13.6269 19.2845 13.2992 19.7817C12.8924 20.4032 12.2822 20.8891 11.6607 21.3976C10.542 22.313 9.34413 23.33 9.34413 25.3188Z" fill="#707070"/>
</svg>
