<svg width="28" height="28" viewBox="0 0 28 28" fill="none" xmlns="http://www.w3.org/2000/svg">
<path d="M2.33325 22.1666V18.6666H19.8333V22.1666H2.33325ZM20.9999 22.1666V18.6666H22.7499V22.1666H20.9999ZM23.9166 22.1666V18.6666H25.6666V22.1666H23.9166ZM20.9999 17.4999V15.9833C20.9999 15.2249 20.7763 14.6464 20.3291 14.2478C19.8819 13.8492 19.3471 13.6499 18.7249 13.6499H16.9166C15.8277 13.6499 14.9041 13.2708 14.1458 12.5124C13.3874 11.7541 13.0083 10.8305 13.0083 9.74159C13.0083 8.6527 13.3874 7.72909 14.1458 6.97075C14.9041 6.21242 15.8277 5.83325 16.9166 5.83325V7.58325C16.3333 7.58325 15.8277 7.78742 15.3999 8.19575C14.9721 8.60409 14.7583 9.11936 14.7583 9.74159C14.7583 10.3638 14.9721 10.8791 15.3999 11.2874C15.8277 11.6958 16.3333 11.8999 16.9166 11.8999H18.7249C19.8138 11.8999 20.7569 12.2499 21.5541 12.9499C22.3513 13.6499 22.7499 14.5249 22.7499 15.5749V17.4999H20.9999ZM23.9166 17.4999V14.8749C23.9166 13.5916 23.4694 12.4833 22.5749 11.5499C21.6805 10.6166 20.5721 10.1499 19.2499 10.1499V8.39992C19.8333 8.39992 20.3388 8.18603 20.7666 7.75825C21.1944 7.33047 21.4083 6.82492 21.4083 6.24159C21.4083 5.65825 21.1944 5.1527 20.7666 4.72492C20.3388 4.29714 19.8333 4.08325 19.2499 4.08325V2.33325C20.3388 2.33325 21.2624 2.71242 22.0208 3.47075C22.7791 4.22909 23.1583 5.1527 23.1583 6.24159C23.1583 6.80547 23.0513 7.31589 22.8374 7.77284C22.6235 8.22978 22.3416 8.6527 21.9916 9.04159C23.0805 9.54714 23.9652 10.3249 24.6458 11.3749C25.3263 12.4249 25.6666 13.5916 25.6666 14.8749V17.4999H23.9166Z" fill="#5F6368"/>
</svg>
